<svg width="108" height="37" viewBox="0 0 108 37" fill="none" xmlns="http://www.w3.org/2000/svg">
<path d="M17.424 0.528015L34.416 35.856H28.224L25.2 28.944H9.02401L6.00001 35.856H5.33462e-06L16.896 0.528015H17.424ZM15.024 15.552L11.184 24.096H23.088L19.296 15.6L17.232 10.752H17.136L15.024 15.552ZM42.8914 36.336C41.5474 36.336 40.1874 36.176 38.8114 35.856C37.4354 35.504 36.2834 34.928 35.3554 34.128L37.5154 29.184C38.0914 29.856 38.7314 30.368 39.4354 30.72C40.1714 31.04 41.0674 31.2 42.1234 31.2C43.1154 31.2 43.9154 31.024 44.5234 30.672C45.1314 30.32 45.5794 29.68 45.8674 28.752C46.1874 27.824 46.3474 26.496 46.3474 24.768V0.576017H51.6754V26.112C51.6754 29.696 50.8594 32.304 49.2274 33.936C47.6274 35.536 45.5154 36.336 42.8914 36.336ZM60.1204 0.576017H65.4964V35.856H60.1204V0.576017ZM89.8298 36.336C86.6298 36.336 83.6698 35.6 80.9498 34.128C78.2618 32.624 76.1178 30.496 74.5178 27.744C72.9178 24.992 72.1178 21.792 72.1178 18.144C72.1178 14.464 72.9178 11.264 74.5178 8.54402C76.1178 5.79202 78.2618 3.68002 80.9498 2.20802C83.6698 0.736016 86.6298 1.62125e-05 89.8298 1.62125e-05C93.0298 1.62125e-05 95.9738 0.736016 98.6618 2.20802C101.382 3.68002 103.542 5.79202 105.142 8.54402C106.742 11.264 107.542 14.464 107.542 18.144C107.542 21.792 106.742 24.992 105.142 27.744C103.542 30.496 101.382 32.624 98.6618 34.128C95.9738 35.6 93.0298 36.336 89.8298 36.336ZM89.8298 31.488C92.0378 31.488 94.0538 30.976 95.8778 29.952C97.7018 28.896 99.1418 27.376 100.198 25.392C101.286 23.376 101.83 20.976 101.83 18.192C101.83 15.376 101.286 12.976 100.198 10.992C99.1418 8.97602 97.7018 7.45602 95.8778 6.43202C94.0858 5.40802 92.0698 4.89602 89.8298 4.89602C87.5898 4.89602 85.5578 5.40802 83.7338 6.43202C81.9098 7.45602 80.4698 8.97602 79.4138 10.992C78.3578 12.976 77.8298 15.376 77.8298 18.192C77.8298 20.976 78.3738 23.376 79.4618 25.392C80.5498 27.376 82.0058 28.896 83.8298 29.952C85.6858 30.976 87.6858 31.488 89.8298 31.488Z" fill="white"/>
</svg>
